<svg xmlns="http://www.w3.org/2000/svg" viewBox="0 0 48.78 43.56"><g fill-rule="evenodd" clip-rule="evenodd"><path d="M15.69 43.56h-.57c.83-.85.36-1.65-.36-2.28a51.95 51.95 0 0 0-5.4-4.3 20.4 20.4 0 0 1-8.22-10.59 21.93 21.93 0 0 1 .1-14.31C2.1 9.41 3.5 8.89 6.67 10.1c1.33.6 2.86.61 4.19.02-.17 1.26-.24 2.28-.45 3.29-.69 3.28-1.65 6.55-2.09 9.85-.54 3.98 1.13 7.53 4.18 10.79a35.36 35.36 0 0 1 4.41 5.91c1.01 1.7.5 2.6-1.22 3.6zM8.2 7.78c-.01.7.7 1.4 1.15 2.22-.69.32-1.43-.08-2.32-.48a18.3 18.3 0 0 0-3.1-.7c1.97-.38 2.05-1.56 2.58-2.55a23.68 23.68 0 0 1 2.71-4.29A13.3 13.3 0 0 1 12.27 0h1.99l-1.4.73C9.61 2.41 8.24 4.87 8.2 7.78zM31.37 43.56h-.57c.83-.85.36-1.65-.36-2.28a51.95 51.95 0 0 0-5.4-4.3 20.33 20.33 0 0 1-8.21-10.59 21.93 21.93 0 0 1 .1-14.31c.85-2.66 2.25-3.19 5.42-1.98 1.33.6 2.86.61 4.19.02-.17 1.26-.24 2.28-.45 3.29-.69 3.28-1.65 6.55-2.09 9.85-.54 3.97 1.13 7.53 4.17 10.79a35.36 35.36 0 0 1 4.41 5.91c1.02 1.7.51 2.6-1.21 3.6zM23.88 7.78c-.01.7.7 1.4 1.15 2.22-.68.32-1.43-.08-2.32-.48a18.3 18.3 0 0 0-3.1-.7c1.97-.38 2.05-1.56 2.58-2.55a24.24 24.24 0 0 1 2.71-4.29A13.3 13.3 0 0 1 27.95 0h1.99l-1.4.73c-3.25 1.68-4.62 4.14-4.66 7.05zM47.05 43.56h-.57c.83-.85.37-1.65-.36-2.28a51.95 51.95 0 0 0-5.4-4.3 20.4 20.4 0 0 1-8.22-10.59 21.93 21.93 0 0 1 .1-14.31c.85-2.66 2.25-3.19 5.42-1.98 1.33.6 2.86.61 4.19.02-.17 1.26-.24 2.28-.46 3.29-.69 3.28-1.65 6.54-2.09 9.85-.53 3.97 1.13 7.53 4.18 10.79a35.36 35.36 0 0 1 4.41 5.91c1.02 1.7.52 2.6-1.2 3.6zM39.56 7.78c-.01.7.7 1.4 1.15 2.22-.68.32-1.43-.08-2.31-.48a18.3 18.3 0 0 0-3.1-.7c1.97-.38 2.05-1.56 2.58-2.55a24.24 24.24 0 0 1 2.71-4.29A13.3 13.3 0 0 1 43.64 0h1.99l-1.4.73c-3.26 1.68-4.63 4.14-4.67 7.05z"></path></g></svg>