<svg xmlns="http://www.w3.org/2000/svg" viewBox="0 0 50 50"><path fill-rule="evenodd" d="M24.99 50a25 25 0 1 1 .03-50 25 25 0 0 1-.03 50zm0-47.5a22.48 22.48 0 1 0 0 44.97A22.48 22.48 0 0 0 25 2.5zm4.95 35.55c-1.23.48-2.2.84-2.92 1.1a7.5 7.5 0 0 1-2.53.38 5 5 0 0 1-3.45-1.09 3.51 3.51 0 0 1-1.23-2.74c0-.44.03-.88.09-1.32.07-.51.17-1.02.29-1.52l1.53-5.41c.14-.52.25-1.01.34-1.46.09-.42.13-.85.14-1.28.05-.52-.1-1.04-.43-1.44a2.35 2.35 0 0 0-1.63-.4c-.41 0-.82.06-1.22.18l-1.06.35.4-1.66c1-.41 1.96-.76 2.88-1.05a8.48 8.48 0 0 1 2.59-.44c1.23-.08 2.44.3 3.4 1.07.79.7 1.23 1.71 1.2 2.77 0 .24-.03.65-.08 1.24a9 9 0 0 1-.3 1.63l-1.52 5.39a13.67 13.67 0 0 0-.49 2.74c-.06.53.11 1.07.48 1.46.5.31 1.08.45 1.67.39a7.18 7.18 0 0 0 2.28-.54l-.43 1.65zm-.26-21.86a3.83 3.83 0 0 1-5.14 0 3.26 3.26 0 0 1 0-4.81 3.83 3.83 0 0 1 5.14 0 3.2 3.2 0 0 1 1.06 2.41 3.2 3.2 0 0 1-1.06 2.4z" clip-rule="evenodd"></path></svg>