<svg xmlns="http://www.w3.org/2000/svg" viewBox="0 0 21.13 21"><circle cx="10.71" cy="10.65" r="2.17" class="stroking" stroke-miterlimit="10"></circle><circle cx="10.71" cy="10.65" r="6.56" fill="none" class="stroking" stroke-width="4" stroke-miterlimit="10"></circle><path d="M11.21 21h-1.17c-.84 0-1.52-.68-1.52-1.52v-1.94c0-.84.68-1.52 1.52-1.52h1.17c.84 0 1.52.68 1.52 1.52v1.94c0 .84-.68 1.52-1.52 1.52zM16.15 11.23v-1.17c0-.84.68-1.52 1.52-1.52h1.94c.84 0 1.52.68 1.52 1.52v1.17c0 .84-.68 1.52-1.52 1.52h-1.94c-.83.01-1.52-.68-1.52-1.52zM11.21 4.98h-1.17c-.84 0-1.52-.68-1.52-1.52V1.52C8.52.68 9.21 0 10.05 0h1.17c.84 0 1.52.68 1.52 1.52v1.94c-.01.84-.69 1.52-1.53 1.52zM6.97 6.09l-.82.83c-.59.59-1.56.59-2.15 0L2.62 5.54c-.59-.59-.59-1.56 0-2.15l.83-.83c.59-.59 1.56-.59 2.15 0l1.37 1.37c.59.6.59 1.57 0 2.16zM18.68 17.8l-.83.83c-.59.59-1.56.59-2.15 0l-1.37-1.37c-.59-.59-.59-1.56 0-2.15l.83-.83c.59-.59 1.56-.59 2.15 0l1.37 1.37c.6.59.6 1.56 0 2.15zM17.86 2.57l.83.83c.59.59.59 1.56 0 2.15l-1.37 1.37c-.59.59-1.56.59-2.15 0l-.83-.83c-.59-.59-.59-1.56 0-2.15l1.37-1.37c.59-.59 1.56-.59 2.15 0zM6.14 14.29l.83.83c.59.59.59 1.56 0 2.15L5.6 18.64c-.59.59-1.56.59-2.15 0l-.83-.83c-.59-.59-.59-1.56 0-2.15l1.37-1.37c.59-.59 1.56-.59 2.15 0zM0 11.19v-1.17C0 9.18.68 8.5 1.52 8.5h1.94c.84 0 1.52.68 1.52 1.52v1.17c0 .84-.68 1.52-1.52 1.52H1.52c-.84 0-1.52-.69-1.52-1.52z"></path></svg>