<svg xmlns="http://www.w3.org/2000/svg" viewBox="0 0 20 50.01"><path fill-rule="evenodd" d="M18.02 50.01h-.65c.95-.97.42-1.9-.41-2.61a61.31 61.31 0 0 0-6.2-4.94A23.45 23.45 0 0 1 1.32 30.3a25.2 25.2 0 0 1 .11-16.43c.98-3.06 2.59-3.66 6.22-2.27 1.53.69 3.28.7 4.82.02-.19 1.44-.28 2.62-.52 3.78-.79 3.77-1.9 7.51-2.4 11.31-.61 4.56 1.3 8.65 4.8 12.39a40.49 40.49 0 0 1 5.06 6.79c1.17 1.95.58 2.98-1.39 4.12zM9.42 8.93c-.01.8.81 1.61 1.32 2.55-.79.37-1.64-.09-2.66-.55a20.62 20.62 0 0 0-3.56-.81c2.26-.43 2.35-1.78 2.96-2.92a27.1 27.1 0 0 1 3.12-4.92c.8-.94 2.31-1.53 3.5-2.28h2.28a122 122 0 0 1-1.6.83c-3.74 1.94-5.32 4.77-5.36 8.1z" clip-rule="evenodd"></path></svg>