<svg xmlns="http://www.w3.org/2000/svg" viewBox="0 0 41.03 49"><path fill-rule="evenodd" d="M9.85 19.62a54.37 54.37 0 0 1 10.54-1.61c4.21 0 8.4.54 12.47 1.6l-.46 3.68-1.09 8.72c-.01.44-.25.85-.64 1.06-1.34.85-2.64 1.76-3.98 2.62a.8.8 0 0 0-.41.78v10.47a.65.65 0 0 1-.41.72c-.73.31-1.41.69-2.14.96-2.39.78-5 .38-7.06-1.06a.84.84 0 0 1-.23-.6c-.02-3.46-.02-6.91 0-10.37a1 1 0 0 0-.55-.98 173.9 173.9 0 0 1-4.01-2.66c-.22-.16-.39-.4-.45-.67-.43-3.39-.86-6.78-1.27-10.18-.1-.81-.19-1.62-.31-2.48zM8.19 18l.5 4.52c.39 3.26.73 6.52 1.11 9.79.06.25.21.47.41.63.84.6 1.73 1.15 2.59 1.75a.8.8 0 0 1 .3.56c.02 2.84.02 5.68 0 8.53a.74.74 0 0 1-.3.56c-.67.41-1.37.77-2.09 1.09a4.8 4.8 0 0 1-4.19-.33 1.96 1.96 0 0 1-1.69-2.21v-.01l.07-.32c0-2.6.02-5.21 0-7.8a1.14 1.14 0 0 0-.3-.7c-.86-.89-1.78-1.75-2.64-2.65a1.63 1.63 0 0 1-.41-.83C1.02 26.99.52 23.4 0 19.82l.02-.2c2.66-.84 5.4-1.38 8.17-1.62zM21.37 0a8.26 8.26 0 0 1 8.46 8.05 8.34 8.34 0 0 1-16.67.24A8.2 8.2 0 0 1 21.28 0h.09zm13.2 18.08c1.91.5 3.78.98 5.62 1.49.89.24.89.27.8 1.18-.39 3.45-.75 6.9-1.16 10.34a.94.94 0 0 1-.34.53c-.93.78-1.87 1.56-2.82 2.29-.36.26-.55.68-.52 1.12.02 2.9 0 5.8.02 8.68a.68.68 0 0 1-.39.7c-.23.11-.43.25-.66.39a5.76 5.76 0 0 1-6.92-.48.68.68 0 0 1-.23-.45c-.02-2.52-.02-5.04 0-7.56a.8.8 0 0 1 .34-.55c1.37-.94 2.78-1.86 4.17-2.78a.84.84 0 0 0 .46-.67c.27-2.64.59-5.27.89-7.91l.64-5.83.1-.49zM12.45 3.84a9.9 9.9 0 0 0 1.57 10.92 6.51 6.51 0 1 1-1.57-10.92zM28.7 14.79a9.9 9.9 0 0 0 1.57-10.94 6.53 6.53 0 0 1 5.27 11.93c-2.28 1-4.94.62-6.84-.99z" clip-rule="evenodd"></path></svg>