<svg xmlns="http://www.w3.org/2000/svg" viewBox="0 0 37.37 49.17"><g fill-rule="evenodd" clip-rule="evenodd"><path d="M17.72 49.17h-.64c.93-.95.41-1.87-.41-2.57a59.25 59.25 0 0 0-6.1-4.85A22.97 22.97 0 0 1 1.3 29.8a24.79 24.79 0 0 1 .11-16.16c.96-3.01 2.55-3.6 6.11-2.23 1.5.68 3.22.69 4.73.02-.19 1.42-.27 2.58-.51 3.72-.78 3.71-1.86 7.39-2.36 11.12-.6 4.49 1.28 8.5 4.72 12.19a39.52 39.52 0 0 1 4.98 6.67c1.15 1.91.58 2.92-1.36 4.04zM9.26 8.78c-.01.79.8 1.59 1.3 2.51-.77.36-1.61-.09-2.61-.54a19.92 19.92 0 0 0-3.5-.79c2.22-.43 2.31-1.76 2.92-2.88a26.52 26.52 0 0 1 3.06-4.84c.79-.93 2.27-1.5 3.45-2.24h2.25l-1.58.82c-3.7 1.9-5.24 4.68-5.29 7.96zM35.42 49.17h-.64c.93-.95.41-1.87-.41-2.57a59.25 59.25 0 0 0-6.1-4.85A22.97 22.97 0 0 1 19 29.8a24.79 24.79 0 0 1 .11-16.16c.96-3.01 2.55-3.6 6.12-2.23 1.5.68 3.22.69 4.73.02-.19 1.42-.27 2.58-.51 3.72-.78 3.71-1.86 7.39-2.36 11.12-.6 4.49 1.28 8.5 4.72 12.19a39.52 39.52 0 0 1 4.98 6.67c1.14 1.91.57 2.92-1.37 4.04zM26.96 8.78c-.01.79.8 1.59 1.3 2.51-.77.36-1.61-.09-2.61-.54a19.92 19.92 0 0 0-3.5-.79c2.23-.43 2.31-1.76 2.92-2.88a26.52 26.52 0 0 1 3.06-4.84c.79-.93 2.28-1.5 3.45-2.24h2.25l-1.58.82c-3.69 1.9-5.24 4.68-5.29 7.96z"></path></g></svg>